<mxfile host="app.diagrams.net" modified="2023-09-21T12:39:20.705Z" agent="Mozilla/5.0 (Windows NT 10.0; Win64; x64) AppleWebKit/537.36 (KHTML, like Gecko) Chrome/116.0.0.0 Safari/537.36" version="21.8.0" etag="pPmQbWtFwUgb67j-5gG7" type="github">
  <diagram name="Page-1" id="tc4QULjqkXudyTqt-9rc">
    <mxGraphModel>
      <root>
        <mxCell id="0" />
        <mxCell id="1" parent="0" />
      </root>
    </mxGraphModel>
  </diagram>
</mxfile>
